<svg id="Layer_1" data-name="Layer 1" xmlns="http://www.w3.org/2000/svg" viewBox="0 0 512 512"><title>Time</title><path d="M472.22,164.65A235.29,235.29,0,0,0,347.35,39.78a235.37,235.37,0,0,0-182.7,0A235.29,235.29,0,0,0,39.78,164.65a235.37,235.37,0,0,0,0,182.7A235.29,235.29,0,0,0,164.65,472.22a235.37,235.37,0,0,0,182.7,0A235.29,235.29,0,0,0,472.22,347.35a235.37,235.37,0,0,0,0-182.7ZM256,448C150.13,448,64,361.87,64,256S150.13,64,256,64s192,86.13,192,192S361.87,448,256,448Z" id="id_103" style="fill: rgb(255, 221, 0);"></path><path d="M277.33,247.16V128a21.33,21.33,0,1,0-42.66,0V256a21.28,21.28,0,0,0,6.25,15.08l64,64a21.33,21.33,0,1,0,30.16-30.17Z" id="id_104" style="fill: rgb(255, 221, 0);"></path></svg>